<?xml version="1.0" encoding="UTF-8" standalone="no"?>
<svg
   xmlns:dc="http://purl.org/dc/elements/1.1/"
   xmlns:cc="http://creativecommons.org/ns#"
   xmlns:rdf="http://www.w3.org/1999/02/22-rdf-syntax-ns#"
   xmlns:svg="http://www.w3.org/2000/svg"
   xmlns="http://www.w3.org/2000/svg"
   xmlns:sodipodi="http://sodipodi.sourceforge.net/DTD/sodipodi-0.dtd"
   xmlns:inkscape="http://www.inkscape.org/namespaces/inkscape"
   viewBox="0 0 3023.2401 1372.26"
   height="137.226mm"
   version="1.2"
   width="302.32401mm"
   id="svg2154"
   sodipodi:docname="closed_spacer.svg"
   inkscape:version="1.0.1 (0767f8302a, 2020-10-17)">
  <metadata
     id="metadata2158">
    <rdf:RDF>
      <cc:Work
         rdf:about="">
        <dc:format>image/svg+xml</dc:format>
        <dc:type
           rdf:resource="http://purl.org/dc/dcmitype/StillImage" />
      </cc:Work>
    </rdf:RDF>
  </metadata>
  <sodipodi:namedview
     pagecolor="#ffffff"
     bordercolor="#666666"
     borderopacity="1"
     objecttolerance="10"
     gridtolerance="10"
     guidetolerance="10"
     inkscape:pageopacity="0"
     inkscape:pageshadow="2"
     inkscape:window-width="1920"
     inkscape:window-height="968"
     id="namedview2156"
     showgrid="false"
     inkscape:zoom="1.0268727"
     inkscape:cx="538.01365"
     inkscape:cy="380.94453"
     inkscape:window-x="1920"
     inkscape:window-y="27"
     inkscape:window-maximized="1"
     inkscape:current-layer="svg2154"
     inkscape:document-rotation="0" />
  <title
     id="title2">FreeCAD SVG Export</title>
  <desc
     id="desc4">Drawing page: Page exported from FreeCAD document: grabert</desc>
  <defs
     id="defs6" />
  <path
     fill-rule="evenodd"
     vector-effect="none"
     d="M 2994.35,3.51 H 28.890007 v 0 c -14.02,0 -25.4000005,11.369996 -25.3900005,25.399996 v -0.01 1314.450004 0 c -0.01,14.03 11.3700005,25.41 25.3900005,25.41 v 0 H 2994.35 v 0 c 14.02,0 25.4,-11.38 25.39,-25.41 v 0 -1314.450004 0 C 3019.75,14.879996 3008.37,3.5 2994.35,3.5 Z"
     id="path80"
     style="font-style:normal;font-weight:400;font-size:31.75px;font-family:'Sans Serif';fill:none;stroke:#ff0000;stroke-width:7;stroke-linecap:round;stroke-linejoin:bevel;stroke-opacity:1" />
  <path
     fill-rule="evenodd"
     vector-effect="none"
     d="m 2935.61,74.939996 c 7.01,0 12.7,5.69 12.7,12.7 v 0 1196.980004 0 c 0,7.01 -5.69,12.7 -12.7,12.7 v 0 H 87.630007 v 0 c -7.01,0 -12.7,-5.69 -12.7,-12.7 v 0 -1196.980004 0 c 0,-7.01 5.69,-12.7 12.7,-12.7 v 0 z"
     id="path112"
     style="font-style:normal;font-weight:400;font-size:31.75px;font-family:'Sans Serif';fill:none;stroke:#ff0000;stroke-width:7;stroke-linecap:round;stroke-linejoin:bevel;stroke-opacity:1" />
  <path
     fill-rule="evenodd"
     vector-effect="none"
     d="m 58.680007,1329.07 c 0,8.56 -6.94,15.5 -15.5,15.5 -8.56,0 -15.5,-6.94 -15.5,-15.5 0,-8.56 6.94,-15.5 15.5,-15.5 8.56,0 15.5,6.94 15.5,15.5 z"
     id="path144"
     style="font-style:normal;font-weight:400;font-size:31.75px;font-family:'Sans Serif';fill:none;stroke:#0000ff;stroke-width:7;stroke-linecap:round;stroke-linejoin:bevel;stroke-opacity:1" />
  <path
     fill-rule="evenodd"
     vector-effect="none"
     d="m 2995.56,1329.07 c 0,8.56 -6.94,15.5 -15.5,15.5 -8.56,0 -15.5,-6.94 -15.5,-15.5 0,-8.56 6.94,-15.5 15.5,-15.5 8.56,0 15.5,6.94 15.5,15.5 z"
     id="path148"
     style="font-style:normal;font-weight:400;font-size:31.75px;font-family:'Sans Serif';fill:none;stroke:#0000ff;stroke-width:7;stroke-linecap:round;stroke-linejoin:bevel;stroke-opacity:1" />
  <path
     fill-rule="evenodd"
     vector-effect="none"
     d="m 2995.56,43.189996 c 0,8.56 -6.94,15.5 -15.5,15.5 -8.56,0 -15.5,-6.94 -15.5,-15.5 0,-8.56 6.94,-15.5 15.5,-15.5 8.56,0 15.5,6.94 15.5,15.5 z"
     id="path152"
     style="font-style:normal;font-weight:400;font-size:31.75px;font-family:'Sans Serif';fill:none;stroke:#0000ff;stroke-width:7;stroke-linecap:round;stroke-linejoin:bevel;stroke-opacity:1" />
  <path
     fill-rule="evenodd"
     vector-effect="none"
     d="m 58.680007,43.189996 c 0,8.56 -6.94,15.5 -15.5,15.5 -8.56,0 -15.5,-6.94 -15.5,-15.5 0,-8.56 6.94,-15.5 15.5,-15.5 8.56,0 15.5,6.94 15.5,15.5 z"
     id="path156"
     style="font-style:normal;font-weight:400;font-size:31.75px;font-family:'Sans Serif';fill:none;stroke:#0000ff;stroke-width:7;stroke-linecap:round;stroke-linejoin:bevel;stroke-opacity:1" />
  <path
     fill-rule="evenodd"
     vector-effect="none"
     d="m 1037.64,1329.07 c 0,8.56 -6.94,15.5 -15.5,15.5 -8.56,0 -15.5,-6.94 -15.5,-15.5 0,-8.56 6.94,-15.5 15.5,-15.5 8.56,0 15.5,6.94 15.5,15.5 z"
     id="path160"
     style="font-style:normal;font-weight:400;font-size:31.75px;font-family:'Sans Serif';fill:none;stroke:#0000ff;stroke-width:7;stroke-linecap:round;stroke-linejoin:bevel;stroke-opacity:1" />
  <path
     fill-rule="evenodd"
     vector-effect="none"
     d="m 2016.6,1329.07 c 0,8.56 -6.94,15.5 -15.5,15.5 -8.56,0 -15.5,-6.94 -15.5,-15.5 0,-8.56 6.94,-15.5 15.5,-15.5 8.56,0 15.5,6.94 15.5,15.5 z"
     id="path164"
     style="font-style:normal;font-weight:400;font-size:31.75px;font-family:'Sans Serif';fill:none;stroke:#0000ff;stroke-width:7;stroke-linecap:round;stroke-linejoin:bevel;stroke-opacity:1" />
  <path
     fill-rule="evenodd"
     vector-effect="none"
     d="m 2016.6,43.189996 c 0,8.56 -6.94,15.5 -15.5,15.5 -8.56,0 -15.5,-6.94 -15.5,-15.5 0,-8.56 6.94,-15.5 15.5,-15.5 8.56,0 15.5,6.94 15.5,15.5 z"
     id="path168"
     style="font-style:normal;font-weight:400;font-size:31.75px;font-family:'Sans Serif';fill:none;stroke:#0000ff;stroke-width:7;stroke-linecap:round;stroke-linejoin:bevel;stroke-opacity:1" />
  <path
     fill-rule="evenodd"
     vector-effect="none"
     d="m 1037.64,43.189996 c 0,8.56 -6.94,15.5 -15.5,15.5 -8.56,0 -15.5,-6.94 -15.5,-15.5 0,-8.56 6.94,-15.5 15.5,-15.5 8.56,0 15.5,6.94 15.5,15.5 z"
     id="path172"
     style="font-style:normal;font-weight:400;font-size:31.75px;font-family:'Sans Serif';fill:none;stroke:#0000ff;stroke-width:7;stroke-linecap:round;stroke-linejoin:bevel;stroke-opacity:1" />
</svg>
