<?xml version="1.0" encoding="UTF-8" standalone="no"?>
<svg
   xmlns:dc="http://purl.org/dc/elements/1.1/"
   xmlns:cc="http://creativecommons.org/ns#"
   xmlns:rdf="http://www.w3.org/1999/02/22-rdf-syntax-ns#"
   xmlns:svg="http://www.w3.org/2000/svg"
   xmlns="http://www.w3.org/2000/svg"
   xmlns:sodipodi="http://sodipodi.sourceforge.net/DTD/sodipodi-0.dtd"
   xmlns:inkscape="http://www.inkscape.org/namespaces/inkscape"
   viewBox="0 0 3023.2602 1372.2501"
   height="137.22501mm"
   version="1.2"
   width="302.32602mm"
   id="svg2154"
   sodipodi:docname="switch_plate_0.54.svg"
   inkscape:version="1.0.1 (0767f8302a, 2020-10-17)"
   inkscape:label="holes">
  <metadata
     id="metadata2158">
    <rdf:RDF>
      <cc:Work
         rdf:about="">
        <dc:format>image/svg+xml</dc:format>
        <dc:type
           rdf:resource="http://purl.org/dc/dcmitype/StillImage" />
      </cc:Work>
    </rdf:RDF>
  </metadata>
  <sodipodi:namedview
     pagecolor="#ffffff"
     bordercolor="#666666"
     borderopacity="1"
     objecttolerance="10"
     gridtolerance="10"
     guidetolerance="10"
     inkscape:pageopacity="0"
     inkscape:pageshadow="2"
     inkscape:window-width="1920"
     inkscape:window-height="968"
     id="namedview2156"
     showgrid="false"
     inkscape:zoom="1.0268727"
     inkscape:cx="608.76116"
     inkscape:cy="150.79051"
     inkscape:window-x="1920"
     inkscape:window-y="27"
     inkscape:window-maximized="1"
     inkscape:current-layer="layer5"
     inkscape:document-rotation="0" />
  <title
     id="title2">FreeCAD SVG Export</title>
  <desc
     id="desc4">Drawing page: Page exported from FreeCAD document: grabert</desc>
  <defs
     id="defs6" />
  <g
     inkscape:groupmode="layer"
     id="layer1"
     inkscape:label="holes"
     style="display:inline"
     transform="translate(-2.6458333,-2.6458333)">
    <path
       fill-rule="evenodd"
       vector-effect="none"
       d="m 59.155833,1342.7959 -14.2,6.22 v 0 c -7.84,3.43 -16.98,-0.15 -20.42,-7.99 -3.43,-7.84 0.14,-16.98 7.99,-20.41 v 0 l 14.2,-6.22 v 0 c 7.84,-3.43 16.98,0.14 20.41,7.98 3.43,7.84 -0.14,16.98 -7.98,20.42 z"
       id="path404"
       style="font-style:normal;font-weight:400;font-size:31.75px;font-family:'Sans Serif';fill:none;stroke:#0000ff;stroke-width:7;stroke-linecap:round;stroke-linejoin:bevel;stroke-opacity:1" />
    <path
       fill-rule="evenodd"
       vector-effect="none"
       d="m 1007.7658,1328.4759 9.39,-12.33 v 0 c 5.19,-6.81 14.91,-8.13 21.72,-2.94 6.82,5.18 8.13,14.91 2.95,21.72 v 0 l -9.39,12.33 v 0 c -5.19,6.81 -14.91,8.13 -21.72,2.95 -6.81,-5.19 -8.13,-14.91 -2.95,-21.73 z"
       id="path468"
       style="font-style:normal;font-weight:400;font-size:31.75px;font-family:'Sans Serif';fill:none;stroke:#0000ff;stroke-width:7;stroke-linecap:round;stroke-linejoin:bevel;stroke-opacity:1" />
    <path
       fill-rule="evenodd"
       vector-effect="none"
       d="m 1996.1158,1347.2559 -9.39,-12.33 v 0 c -5.18,-6.81 -3.87,-16.54 2.95,-21.72 6.81,-5.19 16.53,-3.87 21.72,2.94 v 0 l 9.39,12.33 v 0.01 c 5.18,6.81 3.86,16.53 -2.95,21.72 -6.81,5.18 -16.53,3.86 -21.72,-2.95 z"
       id="path796"
       style="font-style:normal;font-weight:400;font-size:31.75px;font-family:'Sans Serif';fill:none;stroke:#0000ff;stroke-width:7;stroke-linecap:round;stroke-linejoin:bevel;stroke-opacity:1" />
    <path
       fill-rule="evenodd"
       vector-effect="none"
       d="m 2983.5958,1349.0059 -14.2,-6.21 v 0 c -7.84,-3.44 -11.41,-12.58 -7.98,-20.42 3.43,-7.84 12.57,-11.41 20.41,-7.98 v 0 l 14.2,6.22 v 0 c 7.85,3.43 11.42,12.57 7.99,20.41 -3.44,7.84 -12.58,11.42 -20.42,7.99 z"
       id="path860"
       style="font-style:normal;font-weight:400;font-size:31.75px;font-family:'Sans Serif';fill:none;stroke:#0000ff;stroke-width:7;stroke-linecap:round;stroke-linejoin:bevel;stroke-opacity:1" />
    <path
       fill-rule="evenodd"
       vector-effect="none"
       d="m 46.725833,63.135829 -14.2,-6.22 v 0 c -7.85,-3.43 -11.42,-12.57 -7.99,-20.41 3.44,-7.84 12.58,-11.42 20.42,-7.99 v 0 l 14.2,6.22 v 0 c 7.84,3.44 11.41,12.58 7.98,20.42 -3.43,7.84 -12.57,11.41 -20.41,7.98 z"
       id="path1480"
       style="font-style:normal;font-weight:400;font-size:31.75px;font-family:'Sans Serif';fill:none;stroke:#0000ff;stroke-width:7;stroke-linecap:round;stroke-linejoin:bevel;stroke-opacity:1" />
    <path
       fill-rule="evenodd"
       vector-effect="none"
       d="m 1017.1558,61.385829 -9.39,-12.33 v -0.01 c -5.18,-6.81 -3.86,-16.53 2.95,-21.72 6.81,-5.18 16.53,-3.86 21.72,2.95 v 0 l 9.39,12.33 v 0 c 5.18,6.81 3.87,16.54 -2.95,21.72 -6.81,5.19 -16.53,3.87 -21.72,-2.94 z"
       id="path1496"
       style="font-style:normal;font-weight:400;font-size:31.75px;font-family:'Sans Serif';fill:none;stroke:#0000ff;stroke-width:7;stroke-linecap:round;stroke-linejoin:bevel;stroke-opacity:1" />
    <path
       fill-rule="evenodd"
       vector-effect="none"
       d="m 2020.7858,49.055829 -9.39,12.33 v 0 c -5.19,6.81 -14.91,8.13 -21.72,2.94 -6.82,-5.18 -8.13,-14.91 -2.95,-21.72 v 0 l 9.39,-12.33 v 0 c 5.19,-6.81 14.91,-8.13 21.72,-2.95 6.81,5.19 8.13,14.91 2.95,21.73 z"
       id="path1784"
       style="font-style:normal;font-weight:400;font-size:31.75px;font-family:'Sans Serif';fill:none;stroke:#0000ff;stroke-width:7;stroke-linecap:round;stroke-linejoin:bevel;stroke-opacity:1" />
    <path
       fill-rule="evenodd"
       vector-effect="none"
       d="m 2969.3958,34.735829 14.2,-6.22 v 0 c 7.84,-3.43 16.98,0.15 20.42,7.99 3.43,7.84 -0.14,16.98 -7.99,20.41 v 0 l -14.2,6.22 v 0 c -7.84,3.43 -16.98,-0.14 -20.41,-7.98 -3.43,-7.84 0.14,-16.98 7.98,-20.42 z"
       id="path1800"
       style="font-style:normal;font-weight:400;font-size:31.75px;font-family:'Sans Serif';fill:none;stroke:#0000ff;stroke-width:7;stroke-linecap:round;stroke-linejoin:bevel;stroke-opacity:1" />
  </g>
  <g
     inkscape:groupmode="layer"
     id="layer4"
     inkscape:label="switches_0"
     style="display:inline"
     transform="translate(-2.6458333,-2.6458333)">
    <path
       id="path420"
       style="font-style:normal;font-weight:400;font-size:31.75px;font-family:'Sans Serif';fill:none;stroke:#0000ff;stroke-width:7;stroke-linecap:round;stroke-linejoin:bevel;stroke-opacity:1"
       d="m 136.00586,1265.3457 c 45.72005,0 91.4401,0 137.16016,0 0,-45.72 0,-91.4401 0,-137.1602 -45.72006,0 -91.44011,0 -137.16016,0 0,45.7201 0,91.4402 0,137.1602 z" />
    <path
       id="path500"
       style="font-style:normal;font-weight:400;font-size:31.75px;font-family:'Sans Serif';fill:none;stroke:#0000ff;stroke-width:7;stroke-linecap:round;stroke-linejoin:bevel;stroke-opacity:1"
       d="m 858.32031,1265.3457 c 24.55339,0 49.10677,0 73.66016,0 0,-53.1302 0,-106.2604 0,-159.3906 -24.55339,0 -49.10677,0 -73.66016,0 0,53.1302 0,106.2604 0,159.3906 z" />
    <path
       id="path636"
       style="font-style:normal;font-weight:400;font-size:31.75px;font-family:'Sans Serif';fill:none;stroke:#0000ff;stroke-width:7;stroke-linecap:round;stroke-linejoin:bevel;stroke-opacity:1"
       d="m 445.56445,884.3457 c 45.72201,0 91.44401,0 137.16602,0 0,-45.72005 0,-91.4401 0,-137.16015 -45.72201,0 -91.44401,0 -137.16602,0 0,45.72005 0,91.4401 0,137.16015 z" />
    <path
       id="path764"
       style="font-style:normal;font-weight:400;font-size:31.75px;font-family:'Sans Serif';fill:none;stroke:#0000ff;stroke-width:7;stroke-linecap:round;stroke-linejoin:bevel;stroke-opacity:1"
       d="m 1207.5762,884.3457 c 45.7168,0 91.4336,0 137.1504,0 0,-45.72005 0,-91.4401 0,-137.16015 -45.7168,0 -91.4336,0 -137.1504,0 0,45.72005 0,91.4401 0,137.16015 z" />
    <path
       id="path828"
       style="font-style:normal;font-weight:400;font-size:31.75px;font-family:'Sans Serif';fill:none;stroke:#0000ff;stroke-width:7;stroke-linecap:round;stroke-linejoin:bevel;stroke-opacity:1"
       d="m 1858.4453,1265.3457 c 24.5534,0 49.1068,0 73.6602,0 0,-53.1302 0,-106.2604 0,-159.3906 -24.5534,0 -49.1068,0 -73.6602,0 0,53.1302 0,106.2604 0,159.3906 z" />
    <path
       id="path876"
       style="font-style:normal;font-weight:400;font-size:31.75px;font-family:'Sans Serif';fill:none;stroke:#0000ff;stroke-width:7;stroke-linecap:round;stroke-linejoin:bevel;stroke-opacity:1"
       d="m 2755.3848,1265.3457 c 53.6569,0 107.3138,0 160.9707,0 0,-45.72 0,-91.4401 0,-137.1602 -53.6569,0 -107.3138,0 -160.9707,0 0,45.7201 0,91.4402 0,137.1602 z" />
    <path
       id="path988"
       style="font-style:normal;font-weight:400;font-size:31.75px;font-family:'Sans Serif';fill:none;stroke:#0000ff;stroke-width:7;stroke-linecap:round;stroke-linejoin:bevel;stroke-opacity:1"
       d="m 1969.5762,884.3457 c 45.7168,0 91.4336,0 137.1504,0 0,-45.72005 0,-91.4401 0,-137.16015 -45.7168,0 -91.4336,0 -137.1504,0 0,45.72005 0,91.4401 0,137.16015 z" />
    <path
       id="path1384"
       style="font-style:normal;font-weight:400;font-size:31.75px;font-family:'Sans Serif';fill:none;stroke:#0000ff;stroke-width:7;stroke-linecap:round;stroke-linejoin:bevel;stroke-opacity:1"
       d="m 874.19531,503.3457 c 45.72005,0 91.44011,0 137.16019,0 0,-45.72005 0,-91.4401 0,-137.16015 -45.72008,0 -91.44014,0 -137.16019,0 0,45.72005 0,91.4401 0,137.16015 z" />
    <path
       id="path1576"
       style="font-style:normal;font-weight:400;font-size:31.75px;font-family:'Sans Serif';fill:none;stroke:#0000ff;stroke-width:7;stroke-linecap:round;stroke-linejoin:bevel;stroke-opacity:1"
       d="m 1636.1953,503.3457 c 45.7201,0 91.4401,0 137.1602,0 0,-45.72005 0,-91.4401 0,-137.16015 -45.7201,0 -91.4401,0 -137.1602,0 0,45.72005 0,91.4401 0,137.16015 z" />
    <path
       id="path1656"
       style="font-style:normal;font-weight:400;font-size:31.75px;font-family:'Sans Serif';fill:none;stroke:#0000ff;stroke-width:7;stroke-linecap:round;stroke-linejoin:bevel;stroke-opacity:1"
       d="m 2731.5645,693.8457 c 45.7207,0 91.4414,0 137.1621,0 0,-45.72005 0,-91.4401 0,-137.16015 -45.7207,0 -91.4414,0 -137.1621,0 0,45.72005 0,91.4401 0,137.16015 z" />
    <path
       id="path1672"
       style="font-style:normal;font-weight:400;font-size:31.75px;font-family:'Sans Serif';fill:none;stroke:#0000ff;stroke-width:7;stroke-linecap:round;stroke-linejoin:bevel;stroke-opacity:1"
       d="m 2207.6953,503.3457 c 45.7201,0 91.4401,0 137.1602,0 0,-45.72005 0,-91.4401 0,-137.16015 -45.7201,0 -91.4401,0 -137.1602,0 0,45.72005 0,91.4401 0,137.16015 z" />
    <path
       id="path1256"
       style="font-style:normal;font-weight:400;font-size:31.75px;font-family:'Sans Serif';display:inline;fill:none;stroke:#0000ff;stroke-width:7;stroke-linecap:round;stroke-linejoin:bevel;stroke-opacity:1"
       d="m 112.19531,503.3457 c 45.72005,0 91.44011,0 137.16016,0 0,-45.72005 0,-91.4401 0,-137.16015 -45.72005,0 -91.44011,0 -137.16016,0 0,45.72005 0,91.4401 0,137.16015 z" />
  </g>
  <g
     inkscape:groupmode="layer"
     id="layer5"
     inkscape:label="switches_1"
     style="display:inline"
     transform="translate(-2.6458333,-2.6458333)">
    <path
       id="path484"
       style="font-style:normal;font-weight:400;font-size:31.75px;font-family:'Sans Serif';fill:none;stroke:#0000ff;stroke-width:7;stroke-linecap:round;stroke-linejoin:bevel;stroke-opacity:1"
       d="m 1326.6348,1265.3457 c 45.7207,0 91.4414,0 137.1621,0 0,-45.72 0,-91.4401 0,-137.1602 -45.7207,0 -91.4414,0 -137.1621,0 0,45.7201 0,91.4402 0,137.1602 z" />
    <path
       id="path612"
       style="font-style:normal;font-weight:400;font-size:31.75px;font-family:'Sans Serif';fill:none;stroke:#0000ff;stroke-width:7;stroke-linecap:round;stroke-linejoin:bevel;stroke-opacity:1"
       d="m 136.00586,884.3457 c 61.597,0 123.19401,0 184.79102,0 -10e-6,-45.72005 0,-91.4401 0,-137.16015 -61.59701,0 -123.19402,0 -184.79102,0 0,45.72005 0,91.4401 0,137.16015 z" />
    <path
       id="path748"
       style="font-style:normal;font-weight:400;font-size:31.75px;font-family:'Sans Serif';fill:none;stroke:#0000ff;stroke-width:7;stroke-linecap:round;stroke-linejoin:bevel;stroke-opacity:1"
       d="m 1017.0762,884.3457 c 45.7168,0 91.4336,0 137.1504,0 0,-45.72005 0,-91.4401 0,-137.16015 -45.7168,0 -91.4336,0 -137.1504,0 0,45.72005 0,91.4401 0,137.16015 z" />
    <path
       id="path780"
       style="font-style:normal;font-weight:400;font-size:31.75px;font-family:'Sans Serif';fill:none;stroke:#0000ff;stroke-width:7;stroke-linecap:round;stroke-linejoin:bevel;stroke-opacity:1"
       d="m 1398.0762,884.3457 c 45.7168,0 91.4336,0 137.1504,0 0,-45.72005 0,-91.4401 0,-137.16015 -45.7168,0 -91.4336,0 -137.1504,0 0,45.72005 0,91.4401 0,137.16015 z" />
    <path
       id="path844"
       style="font-style:normal;font-weight:400;font-size:31.75px;font-family:'Sans Serif';fill:none;stroke:#0000ff;stroke-width:7;stroke-linecap:round;stroke-linejoin:bevel;stroke-opacity:1"
       d="m 2207.6953,1265.3457 c 172.7201,0 345.4401,0 518.1602,0 0,-45.72 0,-91.4401 0,-137.1602 -172.7201,0 -345.4401,0 -518.1602,0 0,45.7201 0,91.4402 0,137.1602 z" />
    <path
       id="path908"
       style="font-style:normal;font-weight:400;font-size:31.75px;font-family:'Sans Serif';fill:none;stroke:#0000ff;stroke-width:7;stroke-linecap:round;stroke-linejoin:bevel;stroke-opacity:1"
       d="m 1683.8262,1074.8457 c 45.7168,0 91.4336,0 137.1504,0 0,-45.72 0,-91.4401 0,-137.16015 -45.7168,0 -91.4336,0 -137.1504,0 0,45.72005 0,91.44015 0,137.16015 z" />
    <path
       id="path1288"
       style="font-style:normal;font-weight:400;font-size:31.75px;font-family:'Sans Serif';fill:none;stroke:#0000ff;stroke-width:7;stroke-linecap:round;stroke-linejoin:bevel;stroke-opacity:1"
       d="m 493.19531,503.3457 c 45.72005,0 91.44011,0 137.16016,0 0,-45.72005 0,-91.4401 0,-137.16015 -45.72005,0 -91.44011,0 -137.16016,0 0,45.72005 0,91.4401 0,137.16015 z" />
    <path
       id="path1560"
       style="font-style:normal;font-weight:400;font-size:31.75px;font-family:'Sans Serif';fill:none;stroke:#0000ff;stroke-width:7;stroke-linecap:round;stroke-linejoin:bevel;stroke-opacity:1"
       d="m 2112.4453,693.8457 c 45.7201,0 91.4401,0 137.1602,0 0,-45.72005 0,-91.4401 0,-137.16015 -45.7201,0 -91.4401,0 -137.1602,0 0,45.72005 0,91.4401 0,137.16015 z" />
    <path
       id="path1592"
       style="font-style:normal;font-weight:400;font-size:31.75px;font-family:'Sans Serif';fill:none;stroke:#0000ff;stroke-width:7;stroke-linecap:round;stroke-linejoin:bevel;stroke-opacity:1"
       d="m 1826.6953,503.3457 c 45.7201,0 91.4401,0 137.1602,0 0,-45.72005 0,-91.4401 0,-137.16015 -45.7201,0 -91.4401,0 -137.1602,0 0,45.72005 0,91.4401 0,137.16015 z" />
    <path
       id="path452"
       style="font-style:normal;font-weight:400;font-size:31.75px;font-family:'Sans Serif';display:inline;fill:none;stroke:#0000ff;stroke-width:7;stroke-linecap:round;stroke-linejoin:bevel;stroke-opacity:1"
       d="m 612.25781,1265.3457 c 45.72005,0 91.44011,0 137.16016,0 0,-45.72 0,-91.4401 0,-137.1602 -45.72005,0 -91.44011,0 -137.16016,0 0,45.7201 0,91.4402 0,137.1602 z" />
    <path
       id="path1416"
       style="font-style:normal;font-weight:400;font-size:31.75px;font-family:'Sans Serif';display:inline;fill:none;stroke:#0000ff;stroke-width:7;stroke-linecap:round;stroke-linejoin:bevel;stroke-opacity:1"
       d="m 1255.1953,503.3457 c 45.7201,0 91.4401,0 137.1602,0 0,-45.72005 0,-91.4401 0,-137.16015 -45.7201,0 -91.4401,0 -137.1602,0 0,45.72005 0,91.4401 0,137.16015 z" />
    <path
       id="path1704"
       style="font-style:normal;font-weight:400;font-size:31.75px;font-family:'Sans Serif';display:inline;fill:none;stroke:#0000ff;stroke-width:7;stroke-linecap:round;stroke-linejoin:bevel;stroke-opacity:1"
       d="m 2588.6953,503.3457 c 2.1165,0 4.2331,0 6.3496,0 0.4003,0.46601 0.987,0.85479 1.2696,1.36953 0,6.95365 0,13.9073 0,20.86094 24.554,0 49.108,0 73.6621,0 0,-6.98698 0,-13.97396 0,-20.96094 0.466,-0.40024 0.8547,-0.98694 1.3695,-1.26953 54.1535,0 108.307,0 162.4605,0 0.4003,0.46601 0.987,0.85479 1.2696,1.36953 0,6.95365 0,13.9073 0,20.86094 24.5534,0 49.1067,0 73.6601,0 0,-6.98698 0,-13.97396 0,-20.96094 0.466,-0.40024 0.8548,-0.98694 1.3696,-1.26953 2.0832,0 4.1664,0 6.2496,0 0,-45.72005 0,-91.4401 0,-137.16015 -109.2201,0 -218.4401,0 -327.6602,0 0,45.72005 0,91.4401 0,137.16015 z" />
  </g>
  <g
     inkscape:groupmode="layer"
     id="layer6"
     inkscape:label="switches_2"
     style="display:inline"
     transform="translate(-2.6458333,-2.6458333)">
    <path
       id="path436"
       style="font-style:normal;font-weight:400;font-size:31.75px;font-family:'Sans Serif';fill:none;stroke:#0000ff;stroke-width:7;stroke-linecap:round;stroke-linejoin:bevel;stroke-opacity:1"
       d="m 374.13477,1265.3457 c 45.7207,0 91.4414,0 137.16211,0 -10e-6,-45.72 0,-91.4401 0,-137.1602 -45.72071,0 -91.44141,0 -137.16211,0 0,45.7201 0,91.4402 0,137.1602 z" />
    <path
       id="path700"
       style="font-style:normal;font-weight:400;font-size:31.75px;font-family:'Sans Serif';fill:none;stroke:#0000ff;stroke-width:7;stroke-linecap:round;stroke-linejoin:bevel;stroke-opacity:1"
       d="m 1112.3262,1074.8457 c 45.7168,0 91.4336,0 137.1504,0 0,-45.72 0,-91.4401 0,-137.16015 -45.7168,0 -91.4336,0 -137.1504,0 0,45.72005 0,91.44015 0,137.16015 z" />
    <path
       id="path1120"
       style="font-style:normal;font-weight:400;font-size:31.75px;font-family:'Sans Serif';fill:none;stroke:#0000ff;stroke-width:7;stroke-linecap:round;stroke-linejoin:bevel;stroke-opacity:1"
       d="m 2350.5762,884.3457 c 45.7168,0 91.4336,0 137.1504,0 0,-45.72005 0,-91.4401 0,-137.16015 -45.7168,0 -91.4336,0 -137.1504,0 0,45.72005 0,91.4401 0,137.16015 z" />
    <path
       id="path1272"
       style="font-style:normal;font-weight:400;font-size:31.75px;font-family:'Sans Serif';fill:none;stroke:#0000ff;stroke-width:7;stroke-linecap:round;stroke-linejoin:bevel;stroke-opacity:1"
       d="m 302.69531,503.3457 c 45.72005,0 91.44011,0 137.16016,0 0,-45.72005 0,-91.4401 0,-137.16015 -45.72005,0 -91.44011,0 -137.16016,0 0,45.72005 0,91.4401 0,137.16015 z" />
    <path
       id="path1320"
       style="font-style:normal;font-weight:400;font-size:31.75px;font-family:'Sans Serif';fill:none;stroke:#0000ff;stroke-width:7;stroke-linecap:round;stroke-linejoin:bevel;stroke-opacity:1"
       d="m 778.94531,693.8457 c 45.72005,0 91.44011,0 137.16016,0 0,-45.72005 0,-91.4401 0,-137.16015 -45.72005,0 -91.44011,0 -137.16016,0 0,45.72005 0,91.4401 0,137.16015 z" />
    <path
       id="path1432"
       style="font-style:normal;font-weight:400;font-size:31.75px;font-family:'Sans Serif';fill:none;stroke:#0000ff;stroke-width:7;stroke-linecap:round;stroke-linejoin:bevel;stroke-opacity:1"
       d="m 1445.6953,503.3457 c 45.7201,0 91.4401,0 137.1602,0 0,-45.72005 0,-91.4401 0,-137.16015 -45.7201,0 -91.4401,0 -137.1602,0 0,45.72005 0,91.4401 0,137.16015 z" />
    <path
       id="path1608"
       style="font-style:normal;font-weight:400;font-size:31.75px;font-family:'Sans Serif';fill:none;stroke:#0000ff;stroke-width:7;stroke-linecap:round;stroke-linejoin:bevel;stroke-opacity:1"
       d="m 2017.1953,503.3457 c 45.7201,0 91.4401,0 137.1602,0 0,-45.72005 0,-91.4401 0,-137.16015 -45.7201,0 -91.4401,0 -137.1602,0 0,45.72005 0,91.4401 0,137.16015 z" />
    <path
       id="path812"
       style="font-style:normal;font-weight:400;font-size:31.75px;font-family:'Sans Serif';display:inline;fill:none;stroke:#0000ff;stroke-width:7;stroke-linecap:round;stroke-linejoin:bevel;stroke-opacity:1"
       d="m 2017.1953,1265.3457 c 53.6569,0 107.3138,0 160.9707,0 0,-45.72 0,-91.4401 0,-137.1602 -53.6569,0 -107.3138,0 -160.9707,0 0,45.7201 0,91.4402 0,137.1602 z" />
  </g>
  <g
     inkscape:groupmode="layer"
     id="layer7"
     inkscape:label="switches_3"
     style="display:inline"
     transform="translate(-2.6458333,-2.6458333)">
    <path
       id="path668"
       style="font-style:normal;font-weight:400;font-size:31.75px;font-family:'Sans Serif';fill:none;stroke:#0000ff;stroke-width:7;stroke-linecap:round;stroke-linejoin:bevel;stroke-opacity:1"
       d="m 731.32031,1074.8457 c 45.72005,0 91.44011,0 137.16016,0 0,-45.72 0,-91.4401 0,-137.16015 -45.72005,0 -91.44011,0 -137.16016,0 0,45.72005 0,91.44015 0,137.16015 z" />
    <path
       id="path924"
       style="font-style:normal;font-weight:400;font-size:31.75px;font-family:'Sans Serif';fill:none;stroke:#0000ff;stroke-width:7;stroke-linecap:round;stroke-linejoin:bevel;stroke-opacity:1"
       d="m 1874.3262,1074.8457 c 45.7168,0 91.4336,0 137.1504,0 0,-45.72 0,-91.4401 0,-137.16015 -45.7168,0 -91.4336,0 -137.1504,0 0,45.72005 0,91.44015 0,137.16015 z" />
    <path
       id="path1036"
       style="font-style:normal;font-weight:400;font-size:31.75px;font-family:'Sans Serif';fill:none;stroke:#0000ff;stroke-width:7;stroke-linecap:round;stroke-linejoin:bevel;stroke-opacity:1"
       d="m 2517.2559,1074.8457 c 2.1165,0 4.233,0 6.3496,0 0.4002,0.466 0.9869,0.8548 1.2695,1.3695 0,6.9537 0,13.9073 0,20.861 24.554,0 49.1081,0 73.6621,0 0,-6.987 0,-13.974 0,-20.961 0.466,-0.4002 0.8548,-0.9869 1.3695,-1.2695 54.1529,0 108.3058,0 162.4586,0 0.4003,0.466 0.987,0.8548 1.2696,1.3695 0,6.9537 0,13.9073 0,20.861 24.554,0 49.108,0 73.6621,0 0,-6.987 0,-13.974 0,-20.961 0.466,-0.4002 0.8548,-0.9869 1.3695,-1.2695 25.8964,0 51.7927,0 77.6891,0 0,-45.72 0,-91.4401 0,-137.16015 -133.0332,0 -266.0664,0 -399.0996,0 0,45.72005 0,91.44015 0,137.16015 z" />
    <path
       id="path1224"
       style="font-style:normal;font-weight:400;font-size:31.75px;font-family:'Sans Serif';fill:none;stroke:#0000ff;stroke-width:7;stroke-linecap:round;stroke-linejoin:bevel;stroke-opacity:1"
       d="m 397.94531,693.8457 c 45.72005,0 91.44011,0 137.16016,0 0,-45.72005 0,-91.4401 0,-137.16015 -45.72005,0 -91.44011,0 -137.16016,0 0,45.72005 0,91.4401 0,137.16015 z" />
    <path
       id="path1368"
       style="font-style:normal;font-weight:400;font-size:31.75px;font-family:'Sans Serif';fill:none;stroke:#0000ff;stroke-width:7;stroke-linecap:round;stroke-linejoin:bevel;stroke-opacity:1"
       d="m 1350.4453,693.8457 c 45.7201,0 91.4401,0 137.1602,0 0,-45.72005 0,-91.4401 0,-137.16015 -45.7201,0 -91.4401,0 -137.1602,0 0,45.72005 0,91.4401 0,137.16015 z" />
    <path
       id="path1688"
       style="font-style:normal;font-weight:400;font-size:31.75px;font-family:'Sans Serif';fill:none;stroke:#0000ff;stroke-width:7;stroke-linecap:round;stroke-linejoin:bevel;stroke-opacity:1"
       d="m 2398.1953,503.3457 c 45.7201,0 91.4401,0 137.1602,0 0,-45.72005 0,-91.4401 0,-137.16015 -45.7201,0 -91.4401,0 -137.1602,0 0,45.72005 0,91.4401 0,137.16015 z" />
  </g>
  <g
     inkscape:groupmode="layer"
     id="layer8"
     inkscape:label="switches_4"
     style="display:inline"
     transform="translate(-2.6458333,-2.6458333)">
    <path
       id="path596"
       style="font-style:normal;font-weight:400;font-size:31.75px;font-family:'Sans Serif';fill:none;stroke:#0000ff;stroke-width:7;stroke-linecap:round;stroke-linejoin:bevel;stroke-opacity:1"
       d="m 540.82031,1074.8457 c 45.72005,0 91.44011,0 137.16016,0 0,-45.72 0,-91.4401 0,-137.16015 -45.72005,0 -91.44011,0 -137.16016,0 0,45.72005 0,91.44015 0,137.16015 z" />
    <path
       id="path732"
       style="font-style:normal;font-weight:400;font-size:31.75px;font-family:'Sans Serif';fill:none;stroke:#0000ff;stroke-width:7;stroke-linecap:round;stroke-linejoin:bevel;stroke-opacity:1"
       d="m 826.57031,884.3457 c 45.72005,0 91.44011,0 137.16016,0 0,-45.72005 0,-91.4401 0,-137.16015 -45.72005,0 -91.44011,0 -137.16016,0 0,45.72005 0,91.4401 0,137.16015 z" />
    <path
       id="path892"
       style="font-style:normal;font-weight:400;font-size:31.75px;font-family:'Sans Serif';fill:none;stroke:#0000ff;stroke-width:7;stroke-linecap:round;stroke-linejoin:bevel;stroke-opacity:1"
       d="m 1493.3262,1074.8457 c 45.7168,0 91.4336,0 137.1504,0 0,-45.72 0,-91.4401 0,-137.16015 -45.7168,0 -91.4336,0 -137.1504,0 0,45.72005 0,91.44015 0,137.16015 z" />
    <path
       id="path1020"
       style="font-style:normal;font-weight:400;font-size:31.75px;font-family:'Sans Serif';fill:none;stroke:#0000ff;stroke-width:7;stroke-linecap:round;stroke-linejoin:bevel;stroke-opacity:1"
       d="m 2255.3262,1074.8457 c 45.7168,0 91.4336,0 137.1504,0 0,-45.72 0,-91.4401 0,-137.16015 -45.7168,0 -91.4336,0 -137.1504,0 0,45.72005 0,91.44015 0,137.16015 z" />
    <path
       id="path1208"
       style="font-style:normal;font-weight:400;font-size:31.75px;font-family:'Sans Serif';fill:none;stroke:#0000ff;stroke-width:7;stroke-linecap:round;stroke-linejoin:bevel;stroke-opacity:1"
       d="m 159.81445,693.8457 c 45.72071,0 91.44141,0 137.16211,0 0,-45.72005 0,-91.4401 0,-137.16015 -45.7207,0 -91.4414,0 -137.16211,0 0,45.72005 0,91.4401 0,137.16015 z" />
    <path
       id="path1304"
       style="font-style:normal;font-weight:400;font-size:31.75px;font-family:'Sans Serif';fill:none;stroke:#0000ff;stroke-width:7;stroke-linecap:round;stroke-linejoin:bevel;stroke-opacity:1"
       d="m 683.69531,503.3457 c 45.72005,0 91.44011,0 137.16016,0 0,-45.72005 0,-91.4401 0,-137.16015 -45.72005,0 -91.44011,0 -137.16016,0 0,45.72005 0,91.4401 0,137.16015 z" />
    <path
       id="path1352"
       style="font-style:normal;font-weight:400;font-size:31.75px;font-family:'Sans Serif';fill:none;stroke:#0000ff;stroke-width:7;stroke-linecap:round;stroke-linejoin:bevel;stroke-opacity:1"
       d="m 1159.9453,693.8457 c 45.7201,0 91.4401,0 137.1602,0 0,-45.72005 0,-91.4401 0,-137.16015 -45.7201,0 -91.4401,0 -137.1602,0 0,45.72005 0,91.4401 0,137.16015 z" />
    <path
       id="path1544"
       style="font-style:normal;font-weight:400;font-size:31.75px;font-family:'Sans Serif';fill:none;stroke:#0000ff;stroke-width:7;stroke-linecap:round;stroke-linejoin:bevel;stroke-opacity:1"
       d="m 1921.9453,693.8457 c 45.7201,0 91.4401,0 137.1602,0 0,-45.72005 0,-91.4401 0,-137.16015 -45.7201,0 -91.4401,0 -137.1602,0 0,45.72005 0,91.4401 0,137.16015 z" />
    <path
       id="path1640"
       style="font-style:normal;font-weight:400;font-size:31.75px;font-family:'Sans Serif';fill:none;stroke:#0000ff;stroke-width:7;stroke-linecap:round;stroke-linejoin:bevel;stroke-opacity:1"
       d="m 2493.4453,693.8457 c 45.7201,0 91.4401,0 137.1602,0 0,-45.72005 0,-91.4401 0,-137.16015 -45.7201,0 -91.4401,0 -137.1602,0 0,45.72005 0,91.4401 0,137.16015 z" />
  </g>
  <g
     inkscape:groupmode="layer"
     id="layer9"
     inkscape:label="switches_5"
     style="display:inline"
     transform="translate(-2.6458333,-2.6458333)">
    <path
       id="path516"
       style="font-style:normal;font-weight:400;font-size:31.75px;font-family:'Sans Serif';fill:none;stroke:#0000ff;stroke-width:7;stroke-linecap:round;stroke-linejoin:bevel;stroke-opacity:1"
       d="m 136.00586,1074.8457 c 2.11654,0 4.23307,0 6.34961,0 0.40024,0.466 0.98694,0.8548 1.26953,1.3695 0,6.9537 0,13.9073 0,20.861 24.55404,0 49.10807,0 73.66211,0 0,-6.987 0,-13.974 0,-20.961 0.46601,-0.4002 0.85479,-0.9869 1.36953,-1.2695 54.15287,0 108.30573,0 162.45859,0 0.40025,0.466 0.98695,0.8548 1.26954,1.3695 0,6.9537 0,13.9073 0,20.861 24.55403,0 49.10807,0 73.66211,0 0,-6.987 -10e-6,-13.974 0,-20.961 0.466,-0.4002 0.85478,-0.9869 1.36953,-1.2695 10.02005,0 20.0401,0 30.06015,0 0,-45.72 0,-91.4401 0,-137.16015 -117.1569,0 -234.3138,0 -351.4707,0 0,45.72005 0,91.44015 0,137.16015 z" />
    <path
       id="path716"
       style="font-style:normal;font-weight:400;font-size:31.75px;font-family:'Sans Serif';fill:none;stroke:#0000ff;stroke-width:7;stroke-linecap:round;stroke-linejoin:bevel;stroke-opacity:1"
       d="m 1302.8262,1074.8457 c 45.7168,0 91.4336,0 137.1504,0 0,-45.72 0,-91.4401 0,-137.16015 -45.7168,0 -91.4336,0 -137.1504,0 0,45.72005 0,91.44015 0,137.16015 z" />
    <path
       id="path940"
       style="font-style:normal;font-weight:400;font-size:31.75px;font-family:'Sans Serif';fill:none;stroke:#0000ff;stroke-width:7;stroke-linecap:round;stroke-linejoin:bevel;stroke-opacity:1"
       d="m 2064.8262,1074.8457 c 45.7168,0 91.4336,0 137.1504,0 0,-45.72 0,-91.4401 0,-137.16015 -45.7168,0 -91.4336,0 -137.1504,0 0,45.72005 0,91.44015 0,137.16015 z" />
    <path
       id="path1400"
       style="font-style:normal;font-weight:400;font-size:31.75px;font-family:'Sans Serif';fill:none;stroke:#0000ff;stroke-width:7;stroke-linecap:round;stroke-linejoin:bevel;stroke-opacity:1"
       d="m 1064.6953,503.3457 c 45.7201,0 91.4401,0 137.1602,0 0,-45.72005 0,-91.4401 0,-137.16015 -45.7201,0 -91.4401,0 -137.1602,0 0,45.72005 0,91.4401 0,137.16015 z" />
    <path
       id="path1528"
       style="font-style:normal;font-weight:400;font-size:31.75px;font-family:'Sans Serif';fill:none;stroke:#0000ff;stroke-width:7;stroke-linecap:round;stroke-linejoin:bevel;stroke-opacity:1"
       d="m 1731.4453,693.8457 c 45.7201,0 91.4401,0 137.1602,0 0,-45.72005 0,-91.4401 0,-137.16015 -45.7201,0 -91.4401,0 -137.1602,0 0,45.72005 0,91.4401 0,137.16015 z" />
    <path
       id="path1624"
       style="font-style:normal;font-weight:400;font-size:31.75px;font-family:'Sans Serif';fill:none;stroke:#0000ff;stroke-width:7;stroke-linecap:round;stroke-linejoin:bevel;stroke-opacity:1"
       d="m 2302.9453,693.8457 c 45.7201,0 91.4401,0 137.1602,0 0,-45.72005 0,-91.4401 0,-137.16015 -45.7201,0 -91.4401,0 -137.1602,0 0,45.72005 0,91.4401 0,137.16015 z" />
  </g>
  <g
     inkscape:groupmode="layer"
     id="layer10"
     inkscape:label="switches_6"
     style="display:inline"
     transform="translate(-2.6458333,-2.6458333)">
    <path
       id="path652"
       style="font-style:normal;font-weight:400;font-size:31.75px;font-family:'Sans Serif';fill:none;stroke:#0000ff;stroke-width:7;stroke-linecap:round;stroke-linejoin:bevel;stroke-opacity:1"
       d="m 636.07031,884.3457 c 45.72005,0 91.44011,0 137.16016,0 0,-45.72005 0,-91.4401 0,-137.16015 -45.72005,0 -91.44011,0 -137.16016,0 0,45.72005 0,91.4401 0,137.16015 z" />
    <path
       id="path972"
       style="font-style:normal;font-weight:400;font-size:31.75px;font-family:'Sans Serif';fill:none;stroke:#0000ff;stroke-width:7;stroke-linecap:round;stroke-linejoin:bevel;stroke-opacity:1"
       d="m 1779.0762,884.3457 c 45.7168,0 91.4336,0 137.1504,0 0,-45.72005 0,-91.4401 0,-137.16015 -45.7168,0 -91.4336,0 -137.1504,0 0,45.72005 0,91.4401 0,137.16015 z" />
    <path
       id="path1136"
       style="font-style:normal;font-weight:400;font-size:31.75px;font-family:'Sans Serif';fill:none;stroke:#0000ff;stroke-width:7;stroke-linecap:round;stroke-linejoin:bevel;stroke-opacity:1"
       d="m 2572.5059,906.57617 c 24.5533,0 49.1067,0 73.6601,0 0,-6.98698 0,-13.97396 0,-20.96094 0.466,-0.40024 0.8548,-0.98694 1.3695,-1.26953 54.1536,0 108.3071,0 162.4606,0 0.4002,0.46601 0.9869,0.85479 1.2695,1.36953 0,6.95365 0,13.9073 0,20.86094 24.5534,0 49.1068,0 73.6602,0 0,-53.13021 0,-106.26041 0,-159.39062 -24.5534,0 -49.1068,0 -73.6602,0 0,2.36979 0,4.73958 0,7.10937 -0.466,0.40025 -0.8548,0.98695 -1.3695,1.26953 -3.7766,0 -7.5531,0 -11.3297,0 -0.4002,-0.46601 -0.9869,-0.85478 -1.2695,-1.36953 0,-2.33646 0,-4.67291 0,-7.00937 -45.7207,0 -91.4414,0 -137.1621,0 0,2.36979 0,4.73958 0,7.10937 -0.466,0.40025 -0.8548,0.98695 -1.3696,1.26953 -3.7765,0 -7.5531,0 -11.3297,0 -0.4002,-0.46601 -0.9869,-0.85478 -1.2695,-1.36953 0,-2.33646 0,-4.67291 0,-7.00937 -24.5534,0 -49.1068,0 -73.6601,0 0,53.13021 0,106.26041 0,159.39062 z" />
    <path
       id="path1336"
       style="font-style:normal;font-weight:400;font-size:31.75px;font-family:'Sans Serif';fill:none;stroke:#0000ff;stroke-width:7;stroke-linecap:round;stroke-linejoin:bevel;stroke-opacity:1"
       d="m 969.44531,693.8457 c 45.72009,0 91.44009,0 137.16019,0 0,-45.72005 0,-91.4401 0,-137.16015 -45.7201,0 -91.4401,0 -137.16019,0 0,45.72005 0,91.4401 0,137.16015 z" />
  </g>
  <g
     inkscape:groupmode="layer"
     id="layer11"
     inkscape:label="switches_7"
     style="display:inline"
     transform="translate(-2.6458333,-2.6458333)">
    <path
       id="path684"
       style="font-style:normal;font-weight:400;font-size:31.75px;font-family:'Sans Serif';fill:none;stroke:#0000ff;stroke-width:7;stroke-linecap:round;stroke-linejoin:bevel;stroke-opacity:1"
       d="m 921.82031,1074.8457 c 45.71875,0 91.43749,0 137.15629,0 0,-45.72 0,-91.4401 0,-137.16015 -45.7188,0 -91.43754,0 -137.15629,0 0,45.72005 0,91.44015 0,137.16015 z" />
    <path
       id="path956"
       style="font-style:normal;font-weight:400;font-size:31.75px;font-family:'Sans Serif';fill:none;stroke:#0000ff;stroke-width:7;stroke-linecap:round;stroke-linejoin:bevel;stroke-opacity:1"
       d="m 1588.5762,884.3457 c 45.7168,0 91.4336,0 137.1504,0 0,-45.72005 0,-91.4401 0,-137.16015 -45.7168,0 -91.4336,0 -137.1504,0 0,45.72005 0,91.4401 0,137.16015 z" />
    <path
       id="path1004"
       style="font-style:normal;font-weight:400;font-size:31.75px;font-family:'Sans Serif';fill:none;stroke:#0000ff;stroke-width:7;stroke-linecap:round;stroke-linejoin:bevel;stroke-opacity:1"
       d="m 2160.0762,884.3457 c 45.7168,0 91.4336,0 137.1504,0 0,-45.72005 0,-91.4401 0,-137.16015 -45.7168,0 -91.4336,0 -137.1504,0 0,45.72005 0,91.4401 0,137.16015 z" />
    <path
       id="path1240"
       style="font-style:normal;font-weight:400;font-size:31.75px;font-family:'Sans Serif';fill:none;stroke:#0000ff;stroke-width:7;stroke-linecap:round;stroke-linejoin:bevel;stroke-opacity:1"
       d="m 588.44531,693.8457 c 45.72005,0 91.44011,0 137.16016,0 0,-45.72005 0,-91.4401 0,-137.16015 -45.72005,0 -91.44011,0 -137.16016,0 0,45.72005 0,91.4401 0,137.16015 z" />
    <path
       id="path1512"
       style="font-style:normal;font-weight:400;font-size:31.75px;font-family:'Sans Serif';fill:none;stroke:#0000ff;stroke-width:7;stroke-linecap:round;stroke-linejoin:bevel;stroke-opacity:1"
       d="m 1540.9453,693.8457 c 45.7201,0 91.4401,0 137.1602,0 0,-45.72005 0,-91.4401 0,-137.16015 -45.7201,0 -91.4401,0 -137.1602,0 0,45.72005 0,91.4401 0,137.16015 z" />
  </g>
  <g
     inkscape:groupmode="layer"
     id="layer3"
     inkscape:label="oled"
     style="display:inline"
     transform="translate(-2.6458333,-2.6458333)">
    <path
       fill-rule="evenodd"
       vector-effect="none"
       d="m 576.50783,136.31583 c 0,-8.77 -7.107,-15.88 -15.875,-15.88 v 0 h -400.047 v 0 c -8.77,0 -15.88,7.11 -15.88,15.88 v 0 138.43 0 c 0,8.77 7.11,15.87 15.88,15.87 v 0 h 400.047 v 0 c 8.768,0 15.875,-7.1 15.875,-15.87 v 0 z"
       id="path1448"
       style="font-style:normal;font-weight:400;font-size:31.75px;font-family:'Sans Serif';fill:none;stroke:#0000ff;stroke-width:7;stroke-linecap:round;stroke-linejoin:bevel;stroke-opacity:1" />
  </g>
  <g
     inkscape:groupmode="layer"
     id="layer2"
     inkscape:label="outside"
     style="display:inline"
     transform="translate(-2.6458333,-2.6458333)">
    <path
       fill-rule="evenodd"
       vector-effect="none"
       d="m 3022.3958,31.545829 c 0.01,-14.029996 -11.37,-25.3999957 -25.4,-25.3999957 v 0 h -396.87 v 0 c -7.01,0 -12.7,5.6799997 -12.7,12.6999957 v 0 88.890001 0 c 0,7.02 5.69,12.7 12.7,12.7 v 0 h 6.35 v 0 h 165.1 v 0 c 7.01,0 12.7,5.69 12.7,12.7 v 0 133.35 0 c 0,7.02 -5.69,12.7 -12.7,12.7 v 0 h -165.1 v 0 c -7.01,0 -12.7,-5.68 -12.7,-12.7 v 0 -53.97 0 c 0,-7.01 -5.69,-12.7 -12.7,-12.7 v 0 h -107.95 v 0 c -7.01,0 -12.7,-5.69 -12.7,-12.7 v 0 -168.270001 0 c 0,-7.019996 -5.69,-12.6999957 -12.7,-12.6999957 v 0 H 31.545833 v 0 c -14.02,0 -25.3899997,11.3699997 -25.3999997,25.3999957 v 0 1314.440071 0 c 0.01,14.03 11.3799997,25.4 25.3999997,25.4 v 0.01 H 2997.0058 v 0 c 14.02,0 25.39,-11.38 25.4,-25.4 v -0.01 z"
       id="path304"
       style="font-style:normal;font-weight:400;font-size:31.75px;font-family:'Sans Serif';display:inline;fill:none;stroke:#ff0000;stroke-width:7;stroke-linecap:round;stroke-linejoin:bevel;stroke-opacity:1" />
  </g>
</svg>
